<?xml version="1.0" encoding="UTF-8" standalone="no"?>
<!-- Created with Inkscape (http://www.inkscape.org/) -->

<svg
   width="178.73367"
   height="63.21468"
   viewBox="0 0 47.28995 16.725551"
   version="1.1"
   id="svg5"
   inkscape:version="1.2 (1:1.2+202206011327+fc4e4096c5)"
   sodipodi:docname="cropit.svg"
   inkscape:export-filename="cropit_1.svg"
   inkscape:export-xdpi="96"
   inkscape:export-ydpi="96"
   xmlns:inkscape="http://www.inkscape.org/namespaces/inkscape"
   xmlns:sodipodi="http://sodipodi.sourceforge.net/DTD/sodipodi-0.dtd"
   xmlns="http://www.w3.org/2000/svg"
   xmlns:svg="http://www.w3.org/2000/svg">
  <sodipodi:namedview
     id="namedview7"
     pagecolor="#d1d1d1"
     bordercolor="#666666"
     borderopacity="1.0"
     inkscape:showpageshadow="false"
     inkscape:pageopacity="0"
     inkscape:pagecheckerboard="0"
     inkscape:deskcolor="#d1d1d1"
     inkscape:document-units="px"
     showgrid="true"
     showborder="false"
     borderlayer="false"
     inkscape:zoom="1.4681257"
     inkscape:cx="100.12766"
     inkscape:cy="38.484443"
     inkscape:window-width="1920"
     inkscape:window-height="964"
     inkscape:window-x="0"
     inkscape:window-y="27"
     inkscape:window-maximized="1"
     inkscape:current-layer="layer1" />
  <defs
     id="defs2" />
  <g
     inkscape:label="Layer 1"
     inkscape:groupmode="layer"
     id="layer1"
     transform="translate(174.04558,-72.249925)">
    <path
       style="fill:none;stroke:#ff6c79;stroke-width:0.962781;stroke-linecap:round;stroke-linejoin:round;stroke-dasharray:2.88834, 2.88834"
       d="m -141.40546,72.731316 h 14.16844 v 15.762769 h -14.16844 z"
       id="rect391" />
    <g
       aria-label="CROP.IT"
       id="text183"
       style="font-weight:bold;font-size:10.5833px;line-height:1.25;-inkscape-font-specification:'sans-serif Bold';stroke-width:0.264583">
      <path
         d="m -167.48269,84.041419 q -0.54777,0.284219 -1.14205,0.428913 -0.59428,0.144693 -1.24023,0.144693 -1.92752,0 -3.05407,-1.074866 -1.12654,-1.080034 -1.12654,-2.924877 0,-1.85001 1.12654,-2.924877 1.12655,-1.080034 3.05407,-1.080034 0.64595,0 1.24023,0.144694 0.59428,0.144694 1.14205,0.428913 v 1.596797 q -0.55294,-0.377237 -1.09037,-0.552936 -0.53744,-0.1757 -1.13171,-0.1757 -1.06453,0 -1.67431,0.682127 -0.60978,0.682127 -0.60978,1.881016 0,1.193722 0.60978,1.875849 0.60978,0.682126 1.67431,0.682126 0.59427,0 1.13171,-0.175699 0.53743,-0.175699 1.09037,-0.552936 z"
         id="path1263" />
      <path
         d="m -163.00753,80.170866 q 0.62528,0 0.894,-0.232543 0.27388,-0.232543 0.27388,-0.764809 0,-0.527098 -0.27388,-0.754473 -0.26872,-0.227376 -0.894,-0.227376 h -0.83715 v 1.979201 z m -0.83715,1.374589 v 2.919709 h -1.98954 v -7.715267 h 3.03856 q 1.52445,0 2.23242,0.511595 0.71313,0.511596 0.71313,1.617468 0,0.764808 -0.37207,1.255733 -0.3669,0.490924 -1.11104,0.723468 0.40824,0.09302 0.72864,0.423745 0.32556,0.325561 0.65629,0.992184 l 1.08003,2.191074 h -2.11873 l -0.9405,-1.917189 q -0.28422,-0.578775 -0.57878,-0.790647 -0.28939,-0.211873 -0.77514,-0.211873 z"
         id="path1265" />
      <path
         d="m -154.16055,78.052139 q -0.9095,0 -1.41076,0.671792 -0.50126,0.671791 -0.50126,1.891351 0,1.214393 0.50126,1.886184 0.50126,0.671791 1.41076,0.671791 0.91467,0 1.41593,-0.671791 0.50126,-0.671791 0.50126,-1.886184 0,-1.21956 -0.50126,-1.891351 -0.50126,-0.671792 -1.41593,-0.671792 z m 0,-1.441768 q 1.86034,0 2.91454,1.064532 1.0542,1.064531 1.0542,2.940379 0,1.870681 -1.0542,2.935212 -1.0542,1.064531 -2.91454,1.064531 -1.85518,0 -2.91454,-1.064531 -1.0542,-1.064531 -1.0542,-2.935212 0,-1.875848 1.0542,-2.940379 1.05936,-1.064532 2.91454,-1.064532 z"
         id="path1267" />
      <path
         d="m -148.68804,76.749897 h 3.30212 q 1.47277,0 2.25825,0.656289 0.79065,0.651121 0.79065,1.860346 0,1.214392 -0.79065,1.870681 -0.78548,0.651121 -2.25825,0.651121 h -1.31258 v 2.67683 h -1.98954 z m 1.98954,1.441768 v 2.154901 h 1.1007 q 0.57878,0 0.894,-0.279052 0.31523,-0.28422 0.31523,-0.800982 0,-0.516763 -0.31523,-0.795815 -0.31522,-0.279052 -0.894,-0.279052 z"
         id="path1269" />
      <path
         d="m -142.76593,82.465293 h 1.86034 v 1.999871 h -1.86034 z"
         id="path1271" />
      <path
         d="m -138.85404,76.749897 h 1.98954 v 7.715267 h -1.98954 z"
         id="path1273" />
      <path
         d="m -135.83615,76.749897 h 7.11066 v 1.50378 h -2.55798 v 6.211487 h -1.98954 v -6.211487 h -2.56314 z"
         id="path1275" />
    </g>
  </g>
</svg>
