<svg width="47" height="49" viewBox="0 0 47 49" fill="none" xmlns="http://www.w3.org/2000/svg">
<path d="M23.3023 0C20.2422 0 17.2121 0.646644 14.3849 1.90301C11.5577 3.15938 8.98891 5.00087 6.82509 7.32233C2.45506 12.0107 0 18.3696 0 25C0 36.05 6.68777 45.425 15.9388 48.75C17.1039 48.95 17.4767 48.175 17.4767 47.5C17.4767 46.925 17.4767 45.35 17.4767 43.275C11.022 44.775 9.64716 39.925 9.64716 39.925C8.57526 37.025 7.06061 36.25 7.06061 36.25C4.94009 34.7 7.22372 34.75 7.22372 34.75C9.55395 34.925 10.789 37.325 10.789 37.325C12.8163 41.125 16.2417 40 17.57 39.4C17.7797 37.775 18.3855 36.675 19.038 36.05C13.8649 35.425 8.43544 33.275 8.43544 23.75C8.43544 20.975 9.32093 18.75 10.8356 16.975C10.6026 16.35 9.78698 13.75 11.0686 10.375C11.0686 10.375 13.026 9.7 17.4767 12.925C19.3176 12.375 21.3216 12.1 23.3023 12.1C25.283 12.1 27.287 12.375 29.1279 12.925C33.5787 9.7 35.536 10.375 35.536 10.375C36.8177 13.75 36.0021 16.35 35.7691 16.975C37.2837 18.75 38.1692 20.975 38.1692 23.75C38.1692 33.3 32.7165 35.4 27.52 36.025C28.3589 36.8 29.1279 38.325 29.1279 40.65C29.1279 44 29.1279 46.7 29.1279 47.5C29.1279 48.175 29.5007 48.975 30.6892 48.75C39.9402 45.4 46.6047 36.05 46.6047 25C46.6047 21.717 46.0019 18.4661 44.8309 15.4329C43.6598 12.3998 41.9434 9.6438 39.7796 7.32233C37.6157 5.00087 35.0469 3.15938 32.2197 1.90301C29.3926 0.646644 26.3624 0 23.3023 0V0Z" fill="black"/>
</svg>
