<?xml version="1.0" encoding="UTF-8" standalone="no"?>
<svg
   width="30"
   height="50"
   viewBox="0 0 30 50"
   fill="none"
   version="1.1"
   id="svg4"
   sodipodi:docname="help.svg"
   inkscape:version="1.2 (1:1.2+202206011327+fc4e4096c5)"
   xmlns:inkscape="http://www.inkscape.org/namespaces/inkscape"
   xmlns:sodipodi="http://sodipodi.sourceforge.net/DTD/sodipodi-0.dtd"
   xmlns="http://www.w3.org/2000/svg"
   xmlns:svg="http://www.w3.org/2000/svg">
  <defs
     id="defs8" />
  <sodipodi:namedview
     id="namedview6"
     pagecolor="#ffffff"
     bordercolor="#666666"
     borderopacity="1.0"
     inkscape:showpageshadow="2"
     inkscape:pageopacity="0.0"
     inkscape:pagecheckerboard="0"
     inkscape:deskcolor="#d1d1d1"
     showgrid="false"
     inkscape:zoom="16.48"
     inkscape:cx="15.018204"
     inkscape:cy="25.03034"
     inkscape:window-width="1920"
     inkscape:window-height="964"
     inkscape:window-x="0"
     inkscape:window-y="27"
     inkscape:window-maximized="1"
     inkscape:current-layer="svg4" />
  <path
     d="M10 42.5H17.5V50H10V42.5ZM15 0C28.375 0.55 34.2 14.05 26.25 24.175C24.175 26.675 20.825 28.325 19.175 30.425C17.5 32.5 17.5 35 17.5 37.5H10C10 33.325 10 29.8 11.675 27.3C13.325 24.8 16.675 23.325 18.75 21.675C24.8 16.075 23.3 8.15 15 7.5C13.0109 7.5 11.1032 8.29018 9.6967 9.6967C8.29018 11.1032 7.5 13.0109 7.5 15H0C0 11.0218 1.58035 7.20644 4.3934 4.3934C7.20644 1.58035 11.0218 0 15 0V0Z"
     fill="black"
     id="path2"
     style="fill:#ffffff" />
</svg>
