<?xml version="1.0" encoding="UTF-8" standalone="no"?>
<svg
   width="30"
   height="30"
   viewBox="0 0 30 30"
   fill="none"
   version="1.1"
   id="svg4"
   sodipodi:docname="remove.svg"
   inkscape:version="1.2 (1:1.2+202206011327+fc4e4096c5)"
   xmlns:inkscape="http://www.inkscape.org/namespaces/inkscape"
   xmlns:sodipodi="http://sodipodi.sourceforge.net/DTD/sodipodi-0.dtd"
   xmlns="http://www.w3.org/2000/svg"
   xmlns:svg="http://www.w3.org/2000/svg">
  <defs
     id="defs8" />
  <sodipodi:namedview
     id="namedview6"
     pagecolor="#ffffff"
     bordercolor="#666666"
     borderopacity="1.0"
     inkscape:showpageshadow="2"
     inkscape:pageopacity="0.0"
     inkscape:pagecheckerboard="0"
     inkscape:deskcolor="#d1d1d1"
     showgrid="false"
     inkscape:zoom="27.466667"
     inkscape:cx="15.018204"
     inkscape:cy="15.018204"
     inkscape:window-width="1920"
     inkscape:window-height="964"
     inkscape:window-x="0"
     inkscape:window-y="27"
     inkscape:window-maximized="1"
     inkscape:current-layer="svg4" />
  <path
     d="M15 27C8.385 27 3 21.615 3 15C3 8.385 8.385 3 15 3C21.615 3 27 8.385 27 15C27 21.615 21.615 27 15 27ZM15 0C6.705 0 0 6.705 0 15C0 23.295 6.705 30 15 30C23.295 30 30 23.295 30 15C30 6.705 23.295 0 15 0ZM18.885 9L15 12.885L11.115 9L9 11.115L12.885 15L9 18.885L11.115 21L15 17.115L18.885 21L21 18.885L17.115 15L21 11.115L18.885 9Z"
     fill="black"
     id="path2"
     style="fill:#ffffff" />
</svg>
